<svg width="24" height="24" fill="none" xmlns="http://www.w3.org/2000/svg"><circle cx="12" cy="15" fill="#207284" r=".5"/><path d="M14 15.75a.25.25 0 1 0 0 .5v-.5zm-.604 1.735-.242.064.242-.064zm-.555-1.278-.152.198.152-.198zM15.75 20a.25.25 0 1 0 0-.5v.5zM8 4.25h8v-.5H8v.5zM5.25 14V6.5h-.5V14h.5zM8 15.75c-.991 0-1.68-.126-2.117-.4-.41-.256-.633-.664-.633-1.35h-.5c0 .814.278 1.406.867 1.774.563.352 1.374.476 2.383.476v-.5zm8-11.5c.994 0 1.67.128 2.1.45.41.308.65.838.65 1.8h.5c0-1.038-.26-1.758-.85-2.2-.57-.428-1.394-.55-2.4-.55v.5zm-8-.5c-1.006 0-1.83.122-2.4.55-.59.442-.85 1.162-.85 2.2h.5c0-.962.24-1.492.65-1.8.43-.322 1.106-.45 2.1-.45v-.5zM18.75 14c0 .686-.222 1.094-.633 1.35-.437.274-1.126.4-2.117.4v.5c1.009 0 1.82-.124 2.383-.476.59-.368.867-.96.867-1.774h-.5zm0-7.5V14h.5V6.5h-.5zm-7.287 9.25H8v.5h3.463v-.5zm4.537 0h-2v.5h2v-.5zm-2.846 1.8.406 1.522.484-.129-.407-1.523-.483.13zm-1.69-1.3c.375 0 .634 0 .835.024.193.023.304.065.39.131l.304-.396c-.183-.141-.392-.203-.635-.231-.237-.028-.531-.028-.895-.028v.5zm2.173 1.17c-.093-.35-.169-.635-.257-.857-.09-.227-.203-.413-.387-.554l-.304.396c.085.066.155.162.227.343.074.188.142.438.238.801l.483-.129zM14.768 20h.982v-.5h-.982v.5zm-1.208-.928a1.25 1.25 0 0 0 1.208.928v-.5a.75.75 0 0 1-.724-.557l-.484.13zM10.17 18.962l-.244-.053.245.053zm.67-1.91a.25.25 0 1 0-.49-.105l.49.106zM8.25 19.5a.25.25 0 1 0 0 .5v-.5zm.25 0a.25.25 0 1 0 0 .5v-.5zm4.5.5a.25.25 0 1 0 0-.5v.5zm-2.585-.986.425-1.961-.49-.106-.424 1.962.489.105zM8.25 20h.943v-.5H8.25v.5zm1.676-1.091a.75.75 0 0 1-.733.591v.5a1.25 1.25 0 0 0 1.222-.986l-.489-.105zM8.5 20H13v-.5H8.5v.5z" fill="#1A6A83"/><rect fill="#00FFB0" height="9" rx="2" width="12" x="6.5" y="5.25"/><path d="M6 8c0-1.414 0-2.121.44-2.56C6.878 5 7.585 5 9 5h6c1.414 0 2.121 0 2.56.44C18 5.878 18 6.585 18 8v3c0 1.414 0 2.121-.44 2.56-.439.44-1.146.44-2.56.44H9c-1.414 0-2.121 0-2.56-.44C6 13.122 6 12.415 6 11V8z" stroke="#1A6A83" stroke-width=".2"/></svg>