<svg width="24" height="24" fill="none" xmlns="http://www.w3.org/2000/svg"><path d="m8 7 .586.586A4.828 4.828 0 0 0 12 9v0c1.28 0 2.509-.509 3.414-1.414L16 7m0 10-.586-.586A4.828 4.828 0 0 0 12 15v0c-1.28 0-2.509.509-3.414 1.414L8 17M21 6a3 3 0 0 1-3 3m-3-3a3 3 0 0 1 3-3M8.5 6A2.5 2.5 0 0 0 6 3.5m0 5A2.5 2.5 0 0 1 3.5 6M18 21a3 3 0 0 1-3-3m3-3a3 3 0 0 1 3 3M9 18a3 3 0 0 1-3 3m-3-3a3 3 0 0 1 3-3" stroke="#1A6A83" stroke-linecap="round" stroke-linejoin="round" stroke-width=".5"/><path d="m18 6-2.586 2.586A4.828 4.828 0 0 0 14 12v0c0 1.28.509 2.509 1.414 3.414L18 18M6 6l2.586 2.586A4.828 4.828 0 0 1 10 12v0c0 1.28-.509 2.509-1.414 3.414L6 18" stroke="#1A6A83" stroke-linecap="round" stroke-linejoin="round" stroke-width=".5"/><path d="M7.75 6.25a1.5 1.5 0 1 1-3 0 1.5 1.5 0 0 1 3 0zM7.75 18.25a1.5 1.5 0 1 1-3 0 1.5 1.5 0 0 1 3 0zM19.75 6.25a1.5 1.5 0 1 1-3 0 1.5 1.5 0 0 1 3 0zM19.75 18.25a1.5 1.5 0 1 1-3 0 1.5 1.5 0 0 1 3 0z" fill="#00FFB0"/><path d="M7.5 6a1.5 1.5 0 1 1-3 0 1.5 1.5 0 0 1 3 0zM7.5 18a1.5 1.5 0 1 1-3 0 1.5 1.5 0 0 1 3 0zM19.5 6a1.5 1.5 0 1 1-3 0 1.5 1.5 0 0 1 3 0zM19.5 18a1.5 1.5 0 1 1-3 0 1.5 1.5 0 0 1 3 0z" stroke="#1A6A83" stroke-linecap="round" stroke-width=".2"/></svg>