<?xml version="1.0" ?><svg width="24px" height="24px" viewBox="0 0 24 24" fill="none" xmlns="http://www.w3.org/2000/svg"><path d="M4 12V11C4 6.58172 7.58172 3 12 3V3C16.4183 3 20 6.58172 20 11V12" stroke="#1A6A83" stroke-linecap="round" stroke-width="0.5"/><path d="M16.6567 5.37241C16.3847 5.49251 16.0252 5.51842 15.8674 5.37241C15.1057 4.66727 13.8865 4 12 4C10.1136 4 8.89437 4.66727 8.13264 5.37241C7.97492 5.51842 7.61537 5.49251 7.34338 5.37241" stroke="#1A6A83" stroke-linecap="round" stroke-width="0.5"/><path d="M4.13414 14.1831L6.63414 18.5132C6.91028 18.9915 7.38414 19.1801 8.00017 18.8793C8.36283 18.7021 8.44701 18.2976 8.4549 17.9949C8.45673 17.9243 8.58091 17.8851 8.61619 17.9462C8.75426 18.1854 9.06006 18.2673 9.29921 18.1293C9.53835 17.9912 9.62029 17.6854 9.48222 17.4462L6.48222 12.2501C6.34415 12.0109 6.03835 11.929 5.79921 12.0671C5.56006 12.2051 5.47812 12.5109 5.61619 12.7501L5.86619 13.1831C5.59005 12.7048 4.97846 12.5409 4.50017 12.8171C4.02187 13.0932 3.858 13.7048 4.13414 14.1831Z" fill="#00FFB0"/><path d="M21.1341 14.1831L18.6341 18.5132C18.358 18.9915 18.0362 19.2585 17.2681 18.8792C16.8245 18.6602 16.7503 18.2746 16.7669 17.9879C16.7689 17.9521 16.67 17.9152 16.6521 17.9462C16.514 18.1854 16.2082 18.2673 15.9691 18.1292C15.7299 17.9912 15.648 17.6854 15.786 17.4462L18.786 12.2501C18.9241 12.0109 19.2299 11.929 19.4691 12.0671C19.7082 12.2051 19.7901 12.5109 19.6521 12.7501C19.17 13.5851 19.9995 12.3733 20.7681 12.8171C21.2464 13.0932 21.4103 13.7048 21.1341 14.1831Z" fill="#00FFB0"/><path d="M5.23204 13.085C4.95589 12.6067 4.3443 12.4428 3.86601 12.7189C3.38772 12.9951 3.22384 13.6067 3.49999 14.085L5.99999 18.4151C6.27613 18.8934 6.88772 19.0573 7.36601 18.7811C7.8443 18.505 8.00818 17.8934 7.73204 17.4151M5.23204 13.085L4.98204 12.6519C4.84397 12.4128 4.9259 12.107 5.16505 11.9689C5.4042 11.8309 5.70999 11.9128 5.84806 12.1519L8.84806 17.3481C8.98613 17.5872 8.9042 17.893 8.66505 18.0311C8.4259 18.1692 8.12011 18.0872 7.98204 17.8481L7.79454 17.5233M5.23204 13.085L6.73204 15.683M18.7679 13.085C19.0441 12.6067 19.6557 12.4428 20.1339 12.7189C20.6122 12.9951 20.7761 13.6067 20.5 14.085L18 18.4151C17.7238 18.8934 17.1122 19.0572 16.6339 18.7811C16.1557 18.505 15.9918 17.8934 16.2679 17.4151M18.7679 13.085L19.0179 12.6519C19.156 12.4128 19.0741 12.107 18.8349 11.9689C18.5958 11.8309 18.29 11.9128 18.1519 12.1519L15.1519 17.3481C15.0138 17.5872 15.0958 17.893 15.3349 18.0311C15.5741 18.1692 15.8798 18.0872 16.0179 17.8481L16.2054 17.5233M18.7679 13.085L17.2679 15.683" stroke="#1A6A83" stroke-linecap="round" stroke-width="0.2"/></svg>